<?xml version="1.0" encoding="utf-8"?>
<!-- Generator: Adobe Illustrator 19.0.0, SVG Export Plug-In . SVG Version: 6.00 Build 0)  -->
<svg version="1.1" id="layer" xmlns="http://www.w3.org/2000/svg" xmlns:xlink="http://www.w3.org/1999/xlink" x="0px" y="0px"
	 viewBox="-153 -46 652 652" style="enable-background:new -153 -46 652 652;" xml:space="preserve">
<style type="text/css">
	.st0{fill:#6F6F6E;}
</style>
<g>
	<g>
		<path class="st0" d="M-104.2,386.2h-3.8c-0.4-3.9-2.7-6-6.7-6c-3.6,0-6.3,2.2-6.3,5.2c0,1.4,0.7,2.7,2.1,3.6
			c0.7,0.5,1.5,0.9,2.4,1.3c0.3,0.1,1.5,0.7,3.7,1.6c5.1,2.3,6.9,3.4,8.2,5.4c0.9,1.4,1.4,3.2,1.4,5c0,5.8-4.6,9.7-11.3,9.7
			c-7.1,0-11.2-3.8-11.5-11h3.8c0.3,4.9,3.1,7.6,7.9,7.6c4.2,0,7.1-2.5,7.1-5.9c0-1.7-0.7-3.1-2.1-4.2c-1.1-0.9-1.9-1.3-5.3-2.9
			c-4.6-2-6.7-3.2-8-4.4c-1.5-1.5-2.3-3.5-2.3-5.6c0-5.2,4.4-8.9,10.4-8.9C-108.3,376.8-104.5,380.3-104.2,386.2"/>
	</g>
</g>
<polygon class="st0" points="-59.5,377.4 -66.3,406.5 -73.4,377.4 -76.8,377.4 -83.9,406.5 -90.6,377.4 -94.3,377.4 -86.1,411.7 
	-81.9,411.7 -75.1,385.1 -68.3,411.7 -64.1,411.7 -55.9,377.4 "/>
<rect x="-45.4" y="377.4" class="st0" width="3.9" height="34.1"/>
<g>
	<g>
		<path class="st0" d="M-7.6,386.2h-3.8c-0.4-3.9-2.7-6-6.7-6c-3.6,0-6.3,2.2-6.3,5.2c0,1.4,0.7,2.7,2.1,3.6
			c0.7,0.5,1.5,0.9,2.4,1.3c0.3,0.1,1.5,0.7,3.7,1.6c5.1,2.3,6.9,3.4,8.2,5.4c0.9,1.4,1.4,3.2,1.4,5c0,5.8-4.6,9.7-11.3,9.7
			c-7.1,0-11.2-3.8-11.5-11h3.8c0.3,4.9,3.1,7.6,7.9,7.6c4.2,0,7.1-2.5,7.1-5.9c0-1.7-0.7-3.1-2.1-4.2c-1.1-0.9-1.9-1.3-5.3-2.9
			c-4.5-2-6.7-3.2-8-4.4c-1.5-1.5-2.3-3.5-2.3-5.6c0-5.2,4.3-8.9,10.3-8.9C-11.6,376.8-7.9,380.3-7.6,386.2"/>
	</g>
	<g>
		<path class="st0" d="M25.9,386.2h-3.8c-0.4-3.9-2.7-6-6.7-6c-3.6,0-6.3,2.2-6.3,5.2c0,1.4,0.7,2.7,2.1,3.6
			c0.7,0.5,1.5,0.9,2.4,1.3c0.2,0.1,1.5,0.7,3.7,1.6c5.1,2.3,6.9,3.4,8.2,5.4c0.9,1.4,1.4,3.2,1.4,5c0,5.8-4.5,9.7-11.3,9.7
			c-7.1,0-11.2-3.8-11.5-11h3.8c0.3,4.9,3.1,7.6,7.9,7.6c4.2,0,7.1-2.5,7.1-5.9c0-1.7-0.7-3.1-2.1-4.2c-1.1-0.9-1.9-1.3-5.3-2.9
			c-4.6-2-6.7-3.2-8-4.4c-1.5-1.5-2.3-3.5-2.3-5.6c0-5.2,4.4-8.9,10.3-8.9C21.8,376.8,25.6,380.3,25.9,386.2"/>
	</g>
	<g>
		<path class="st0" d="M66.8,408.2h2.5c5.5,0,7-0.3,9.4-1.7c3.5-2.2,5.4-6.4,5.4-12.1c0-5.8-2.2-10.3-6-12.3
			c-2.2-1.2-3.6-1.4-9.7-1.4h-1.6V408.2z M63,377.4h5.4c3.6,0,5,0.1,6.9,0.4c2,0.2,3.7,0.8,5.2,1.6c4.8,2.7,7.8,8.4,7.8,15.1
			c0,6.9-3,12.6-8.1,15.2c-2.9,1.5-5.1,1.9-12.3,1.9h-5L63,377.4L63,377.4z"/>
	</g>
</g>
<polygon class="st0" points="100.6,377.4 100.6,411.5 119.8,411.5 119.8,408.2 104.4,408.2 104.4,395.5 118.4,395.5 118.4,392.2 
	104.4,392.2 104.4,380.7 119.5,380.7 119.5,377.4 "/>
<polygon class="st0" points="131.7,377.4 131.7,411.5 150.4,411.5 150.4,408.2 135.7,408.2 135.7,377.4 "/>
<g>
	<g>
		<path class="st0" d="M161,377.4h3.8v20.1c0,6,0.3,7.4,2,9.1c1.4,1.4,3.8,2.2,6.3,2.2c4.3,0,7.4-2.1,8-5.4c0.3-1.5,0.3-2.2,0.3-5.8
			v-20.1h3.9v20.2v2.5c0,4.2-0.8,6.6-2.7,8.6c-2.2,2.3-5.4,3.4-9.5,3.4c-5.5,0-9.7-2.3-11.3-6.4c-0.6-1.4-0.8-3.2-0.8-5.7v-2.5
			V377.4z"/>
	</g>
</g>
<polygon class="st0" points="216.6,377.4 208.5,390.5 200.6,377.4 196.1,377.4 206.3,393.7 195.5,411.5 199.9,411.5 208.5,397.2 
	217.2,411.5 221.6,411.5 210.8,393.7 221,377.4 "/>
<polygon class="st0" points="232.1,377.4 232.1,411.5 251.4,411.5 251.4,408.2 236,408.2 236,395.5 250,395.5 250,392.2 236,392.2 
	236,380.7 251.1,380.7 251.1,377.4 "/>
<polygon class="st0" points="308.4,377.4 308.4,392.1 292.2,392.1 292.2,377.4 288.4,377.4 288.4,411.5 292.2,411.5 292.2,395.2 
	308.4,395.2 308.4,411.5 312.3,411.5 312.3,377.4 "/>
<g>
	<g>
		<path class="st0" d="M328.6,394.5c0,8.6,3.9,14.3,9.9,14.3c6,0,9.9-5.7,9.9-14.3c0-8.6-3.9-14.3-9.9-14.3
			C332.6,380.2,328.6,385.8,328.6,394.5 M324.5,394.5c0-10.5,5.7-17.7,14.1-17.7c8.4,0,14,7.2,14,17.7c0,10.5-5.7,17.6-14,17.6
			C330.2,412.1,324.5,405,324.5,394.5"/>
	</g>
</g>
<polygon class="st0" points="360.2,377.4 360.2,380.7 369.1,380.7 369.1,411.5 373,411.5 373,380.7 381.9,380.7 381.9,377.4 "/>
<polygon class="st0" points="392.6,377.4 392.6,411.5 411.8,411.5 411.8,408.2 396.4,408.2 396.4,395.5 410.4,395.5 410.4,392.2 
	396.4,392.2 396.4,380.7 411.5,380.7 411.5,377.4 "/>
<polygon class="st0" points="423.7,377.4 423.7,411.5 442.4,411.5 442.4,408.2 427.7,408.2 427.7,377.4 "/>
<g>
	<g>
		<path class="st0" d="M473,386.2h-3.8c-0.4-3.9-2.7-6-6.7-6c-3.6,0-6.3,2.2-6.3,5.2c0,1.4,0.7,2.7,2.1,3.6c0.7,0.5,1.5,0.9,2.4,1.3
			c0.3,0.1,1.5,0.7,3.7,1.6c5.1,2.3,6.9,3.4,8.2,5.4c0.9,1.4,1.4,3.2,1.4,5c0,5.8-4.6,9.7-11.3,9.7c-7.1,0-11.2-3.8-11.5-11h3.8
			c0.3,4.9,3.1,7.6,7.8,7.6c4.2,0,7.1-2.5,7.1-5.9c0-1.7-0.7-3.1-2.1-4.2c-1.1-0.9-1.9-1.3-5.3-2.9c-4.6-2-6.7-3.2-8-4.4
			c-1.5-1.5-2.3-3.5-2.3-5.6c0-5.2,4.3-8.9,10.3-8.9C468.9,376.8,472.7,380.3,473,386.2"/>
	</g>
</g>
<path class="st0" d="M185.6,149.8h70.5v14.1h-14.6h-4.9v4.9v137.8v4.9h4.9h14.6v14.1h-70.5v-14.1h13.4h4.9v-4.9v-46.7V255h-4.9H149
	h-4.9v4.9v46.7v4.9h4.9h13.4v14.1H91.8v-14.1h14.7h4.9v-4.9V168.8V164h-4.9H92v-14.2h70.4V164H149H144v4.9v45.4v4.9h4.9h50.1h4.9
	v-4.9v-45.4V164h-4.9h-13.4C185.6,164,185.6,149.8,185.6,149.8z M180.7,144.9v23.9h18.4v45.4H149v-45.4h18.4v-23.9H87.1v23.9h19.5
	v137.7H86.9v23.9h80.4v-23.9H149v-46.7h50.1v46.7h-18.4v23.9h80.4v-23.9h-19.6V168.8h19.6v-23.9H180.7z"/>
<polygon class="st0" points="129.6,220.1 133.9,232.2 146.9,232.5 136.5,240.2 140.3,252.5 129.6,245.2 119,252.5 122.8,240.2 
	112.4,232.5 125.4,232.2 "/>
<polygon class="st0" points="174,220.1 178.3,232.2 191.2,232.5 180.9,240.2 184.6,252.5 174,245.2 163.4,252.5 167.1,240.2 
	156.8,232.5 169.7,232.2 "/>
<polygon class="st0" points="218.4,220.1 222.6,232.2 235.6,232.5 225.2,240.2 229,252.5 218.4,245.2 207.7,252.5 211.5,240.2 
	201.1,232.5 214.1,232.2 "/>
<polygon class="st0" points="262.7,220.1 267,232.2 280,232.5 269.6,240.2 273.4,252.5 262.7,245.2 252.1,252.5 255.8,240.2 
	245.5,232.5 258.5,232.2 "/>
<polygon class="st0" points="85.3,220.1 89.5,232.2 102.5,232.5 92.2,240.2 95.9,252.5 85.3,245.2 74.6,252.5 78.4,240.2 
	68.1,232.5 81,232.2 "/>
</svg>
